<svg class="svg-inline icon-rating-on" xmlns="http://www.w3.org/2000/svg" width="15" height="15" viewBox="0 0 25 25" style="width:15px!important;height:15px!important"><path d="M24.868 9a1.194 1.194 0 0 0-1.075-.791h-7.692L13.659.794a1.197 1.197 0 0 0-1.197-.792 1.195 1.195 0 0 0-1.147.816L8.873 8.233H1.205a1.195 1.195 0 0 0-1.14.796 1.164 1.164 0 0 0 .407 1.316L6.7 14.976 4.257 22.44c-.172.49.002 1.033.43 1.337a1.213 1.213 0 0 0 1.426-.017l6.52-4.8 6.545 4.8a1.21 1.21 0 0 0 1.694-.247c.229-.31.29-.711.162-1.073l-2.442-7.464 6.105-4.655a1.16 1.16 0 0 0 .17-1.32z" fill="url(#a)!important"></path><defs><linearGradient id="a" x1="99.99%" y1="0%" y2="0%"><stop offset="0%" stop-color="#c00"></stop><stop offset="1%" stop-color="#b9bbbd"></stop></linearGradient></defs></svg>