<svg xmlns="http://www.w3.org/2000/svg" width="20" height="20" viewBox="0 0 20 20"> <g fill="none" fill-rule="evenodd" stroke-linecap="round"> <g stroke-width="2"> <g> <g> <path stroke="#000" d="M-0.702 5.693L10.298 5.693" transform="translate(-17 -432) translate(17 432) translate(.7 2.27) matrix(0 1 1 0 -.895 .895)"></path> <path stroke="#D50032" d="M3.05 9.993l3.439 3.588m0 .218l-3.44 3.587" transform="translate(-17 -432) translate(17 432) translate(.7 2.27) matrix(0 1 1 0 -8.92 8.92)"></path> </g> <g> <path stroke="#000" d="M-0.702 5.693L10.298 5.693" transform="translate(-17 -432) translate(17 432) matrix(1 0 0 -1 10 18) matrix(0 1 1 0 -.895 .895)"></path> <path stroke="#D50032" d="M3.05 9.993l3.439 3.588m0 .218l-3.44 3.587" transform="translate(-17 -432) translate(17 432) matrix(1 0 0 -1 10 18) matrix(0 1 1 0 -8.92 8.92)"></path> </g> </g> </g> </g> </svg>
