<svg height="20" viewBox="0 0 432 433" width="20" xmlns="http://www.w3.org/2000/svg"><path d="M363.166.997C401.177.997 432 31.816 432 69.839v294.326C432 402.178 401.177 433 363.166 433H68.839C30.823 433 0 402.178 0 364.165V69.839C0 31.816 30.823.997 68.839.997h294.327zm-145.58 364.525c18.754 0 30.786-8.506 42.446-16.752 8.02-5.669 15.597-11.018 24.521-12.506 4.362-.722 8.703-1.088 12.898-1.088 7.184 0 12.83.907 17.866 1.892 2.84.558 5.081.84 6.656.84h.37c2.271 0 3.621-1.014 4.255-3.18.735-2.497 1.269-4.87 1.796-7.287 1.45-6.64 2.392-9.807 4.822-10.18 29.746-4.596 38.25-10.851 40.137-15.263a5.623 5.623 0 00.467-1.913 3.355 3.355 0 00-2.801-3.493c-45.732-7.536-66.212-54.242-67.063-56.224-.021-.058-.049-.111-.074-.166-2.797-5.673-3.346-10.591-1.632-14.623 3.135-7.392 13.362-10.638 20.142-12.789 1.663-.528 3.234-1.027 4.463-1.51 11.858-4.684 14.275-9.444 14.215-12.611-.064-3.362-3.072-6.58-7.663-8.207l-.098-.04c-1.617-.675-3.564-1.047-5.485-1.047-1.258 0-3.105.164-4.769.941-5.676 2.659-10.848 4.094-15.348 4.266h-.007c-5.922-.227-8.544-2.752-8.871-3.085.153-2.798.335-5.721.524-8.728l.057-.939c1.363-21.595 3.055-48.472-3.784-63.808-20.503-45.972-64.053-49.548-76.913-49.548l-.76.003s-5.296.057-5.625.057c-12.83 0-56.285 3.569-76.777 49.516-6.837 15.328-5.15 42.181-3.789 63.793.211 3.334.417 6.565.583 9.659-.349.36-3.2 3.105-9.732 3.105-4.727 0-10.206-1.443-16.285-4.291-1.045-.488-2.288-.738-3.699-.738-5.147 0-11.512 3.319-12.418 8.081-.53 2.795.594 8.279 14.108 13.621 1.239.49 2.81.986 4.467 1.51 6.772 2.148 17.003 5.397 20.14 12.79 1.712 4.034 1.164 8.956-1.634 14.625-.025.055-.05.108-.073.163-.851 1.984-21.349 48.703-67.06 56.231a3.346 3.346 0 00-2.8 3.49 5.7 5.7 0 00.458 1.902c1.897 4.444 10.408 10.707 40.144 15.3 2.551.392 3.495 4.135 4.824 10.223.515 2.365 1.051 4.81 1.793 7.335.852 2.914 2.815 3.306 4.626 3.306 1.733 0 4.014-.445 6.658-.962 4.351-.851 10.31-2.017 17.864-2.017 4.194 0 8.533.366 12.892 1.088 8.934 1.488 16.516 6.847 24.551 12.525 11.636 8.227 23.67 16.733 42.418 16.733.534 0 1.069-.022 1.579-.061h.002a50.87 50.87 0 002.418.061z" fill="#FFF" fill-rule="evenodd"/></svg>